<svg width="50" height="66" xmlns="http://www.w3.org/2000/svg" xmlns:xlink="http://www.w3.org/1999/xlink" xmlns:svgjs="http://svgjs.com/svgjs" viewBox="0.25 0 49.5 66" fill="#fff" stroke-miterlimit="100" stroke="#494a67" stroke-width=".25"><svg xmlns="http://www.w3.org/2000/svg" width="50" height="66" viewBox="0.5 0.5 48.75 65"><path paint-order="stroke fill markers" fill-rule="evenodd" d="M43.275.536c3.075.029 5.903 2.679 5.933 6.018.056 17.626.056 35.253 0 52.88-.028 3.145-2.7 5.993-5.933 6.017-12.266.065-24.534.065-36.8 0-3.074-.024-5.903-2.724-5.933-6.017a8230.475 8230.475 0 0 1 0-52.88C.57 3.415 3.25.566 6.475.536c12.266-.048 24.533-.048 36.8 0 0 0 0 0 0 0zm-5.373 2.685l-1.407 5.477c-.422 1.609-1.922 2.825-3.603 2.852-5.333.023-10.664 0-15.997 0-1.645-.007-3.205-1.198-3.64-2.852l-1.403-5.464c-1.78.002-3.559.002-5.337.002-1.715.007-3.294 1.509-3.31 3.335-.056 17.622-.158 35.245 0 52.867.027 1.732 1.54 3.3 3.287 3.313 12.263.065 24.526.097 36.788 0 1.705-.027 3.25-1.541 3.266-3.333.056-17.623.157-35.246 0-52.868-.027-1.728-1.496-3.297-3.287-3.313-1.786-.007-3.571-.012-5.357-.016 0 0 0 0 0 0zm1.03 50.805H10.819c-.107-.005-.134-.002-.238-.021-.93-.172-1.43-1.514-.725-2.262.248-.263.6-.4.963-.417h28.113l.12.005c.104.015.132.015.234.043 1.014.284 1.3 1.992.223 2.519a1.453 1.453 0 0 1-.577.133s0 0 0 0zm0-10.619H10.819c-1.062-.048-1.722-1.478-.963-2.283.193-.205.45-.345.725-.395.104-.02.131-.018.238-.023h28.113l.12.006c1 .138 1.596 1.477.842 2.278a1.326 1.326 0 0 1-.724.395c-.105.02-.132.017-.238.022zm0-10.62H10.819c-1.048-.047-1.75-1.448-.963-2.282.193-.205.45-.345.725-.396.104-.02.131-.016.238-.021h28.113l.12.005c.104.015.132.015.234.043.832.234 1.254 1.422.687 2.143-.249.316-.64.49-1.041.509 0 0 0 0 0 0zm0-10.618H10.819c-1.048-.048-1.75-1.449-.963-2.283a1.33 1.33 0 0 1 .725-.396c.104-.019.131-.017.238-.02h28.113c.04 0 .08.003.12.004 1 .138 1.596 1.477.842 2.278a1.326 1.326 0 0 1-.724.395c-.105.02-.132.017-.238.022zM35.147 3.236H14.603c.411 1.6.797 3.208 1.234 4.8.13.457.566.8 1.037.814 5.334.086 10.669.086 16.002 0 .477-.013.92-.364 1.044-.84l1.227-4.774z"/></svg></svg>