<svg width="53" height="65" xmlns="http://www.w3.org/2000/svg" xmlns:xlink="http://www.w3.org/1999/xlink" xmlns:svgjs="http://svgjs.com/svgjs" viewBox="251 172 53 65"><svg width="26" height="16" xmlns="http://www.w3.org/2000/svg" xmlns:xlink="http://www.w3.org/1999/xlink" xmlns:svgjs="http://svgjs.com/svgjs" viewBox="0 0.011 26 15.978" fill="#fff" stroke-miterlimit="100" stroke="#fff" stroke-width=".4" x="264" y="212"><svg xmlns="http://www.w3.org/2000/svg" xmlns:xlink="http://www.w3.org/1999/xlink" width="26" height="16" viewBox="0.767 0.426 24.887 15.294"><path paint-order="stroke fill markers" fill-rule="evenodd" d="M5.443 15.72h.008l15.535-.029a4.67 4.67 0 0 0 3.515-1.603 4.66 4.66 0 0 0 1.113-3.669l-.48-4.489C24.709 2.792 21.999.426 18.833.426H7.557c-3.198 0-5.91 2.391-6.312 5.593L.804 10.46a4.673 4.673 0 0 0 4.639 5.26zm-2.396-5.007l.44-4.442a4.109 4.109 0 0 1 4.07-3.588h11.276c2.042 0 3.789 1.526 4.06 3.518l.48 4.49a2.419 2.419 0 0 1-2.391 2.741l-15.535.029h-.004a2.42 2.42 0 0 1-1.812-.816 2.434 2.434 0 0 1-.584-1.932z"/></svg></svg><svg width="16" height="16" xmlns="http://www.w3.org/2000/svg" xmlns:xlink="http://www.w3.org/1999/xlink" xmlns:svgjs="http://svgjs.com/svgjs" viewBox="0 0.001 16 15.999" fill="#fff" stroke-miterlimit="100" stroke="#fff" stroke-width=".4" x="269" y="195"><svg xmlns="http://www.w3.org/2000/svg" xmlns:xlink="http://www.w3.org/1999/xlink" width="16" height="16" viewBox="0.514 0.385 15.452 15.451"><path paint-order="stroke fill markers" fill-rule="evenodd" d="M8.24 15.836c4.26 0 7.726-3.466 7.726-7.726C15.966 3.851 12.5.385 8.24.385 3.98.385.514 3.851.514 8.11c0 4.26 3.467 7.726 7.727 7.726zm0-13.193a5.474 5.474 0 0 1 5.468 5.467 5.473 5.473 0 0 1-5.467 5.467A5.473 5.473 0 0 1 2.773 8.11 5.474 5.474 0 0 1 8.24 2.643z"/></svg></svg><svg width="53" height="65" xmlns="http://www.w3.org/2000/svg" xmlns:xlink="http://www.w3.org/1999/xlink" xmlns:svgjs="http://svgjs.com/svgjs" viewBox="0.29 0 52.42 65" fill="#fff" stroke-miterlimit="100" stroke="#fff" stroke-width=".4" x="251" y="172"><svg xmlns="http://www.w3.org/2000/svg" width="53" height="65" viewBox="0 0 52.42 65"><path paint-order="stroke fill markers" fill-rule="evenodd" d="M9.808 65H42.61c5.41 0 9.809-4.4 9.809-9.809V22.016c0-.07-.007-.137-.02-.204 0 0 0 0 0 0a.984.984 0 0 0-.092-.255l-.03-.06a1.01 1.01 0 0 0-.166-.222L31.144.307a1.03 1.03 0 0 0-.222-.164l-.06-.033a1.048 1.048 0 0 0-.46-.11H9.808C4.399 0 0 4.4 0 9.808v45.383C0 60.601 4.4 65 9.808 65zM2.097 9.808c0-4.252 3.459-7.711 7.71-7.711h19.548v11.532c0 5.203 4.232 9.436 9.435 9.436h11.533v32.127c0 4.252-3.46 7.712-7.711 7.712H9.808c-4.252 0-7.711-3.46-7.711-7.712V9.808zm46.742 11.16H38.79c-4.047 0-7.338-3.293-7.338-7.34V3.58l17.387 17.387z"/></svg></svg></svg>