<svg width="66" height="58" xmlns="http://www.w3.org/2000/svg" xmlns:xlink="http://www.w3.org/1999/xlink" xmlns:svgjs="http://svgjs.com/svgjs" viewBox="0.282 0 65.436 58" fill="#fff" stroke-miterlimit="100" stroke="#494a67" stroke-width=".25"><svg xmlns="http://www.w3.org/2000/svg" width="66" height="58" viewBox="0 0 65.436 58"><path paint-order="stroke fill markers" fill-rule="evenodd" d="M22.168 0c-.731.07-1.351.753-1.348 1.487v5.949H2.974c-.868 0-1.555.368-2.068.883C.393 8.834 0 9.544 0 10.41V54.26c0 .997.276 2.015 1 2.742.721.727 1.727.999 2.718.999h58c.99 0 1.996-.277 2.718-1 .723-.721 1-1.727 1-2.718V25.794v-.07V10.41c0-.868-.394-1.578-.907-2.09-.513-.514-1.2-.884-2.068-.884H44.615V1.487C44.615.71 43.907 0 43.127 0h-20.96s0 0 0 0zm1.627 2.974H41.64v4.462H23.795V2.974zM2.975 10.41H62.46v15.15c-.171 1.043-1.082 2.078-2.626 2.882-1.567.817-3.675 1.316-5.554 1.302H37.922v-2.975c0-.785-.302-1.446-.743-1.975-.44-.528-1.07-1-1.975-1H30.23c-.905 0-1.534.472-1.975 1-.44.529-.743 1.19-.743 1.975v2.975h-16.36c-1.878.014-3.986-.485-5.553-1.302-1.544-.804-2.454-1.84-2.626-2.881V10.41zm27.512 16.36h4.46v8.922h-4.46V26.77zM2.974 30.323c.4.284.818.54 1.255.768 2.08 1.083 4.547 1.644 6.925 1.626h16.359v2.974c0 .786.302 1.447.743 1.975.44.529 1.07 1 1.975 1h4.973c.905 0 1.534-.471 1.975-1 .44-.528.743-1.19.743-1.975v-2.974h16.36c2.377.018 4.844-.543 6.924-1.626.437-.228.855-.484 1.255-.768v23.958c0 .496-.095.583-.116.605-.022.021-.132.139-.628.139h-58c-.495 0-.605-.119-.627-.14-.02-.022-.116-.12-.116-.627V30.324z"/></svg></svg>