<svg width="39" height="39" xmlns="http://www.w3.org/2000/svg" xmlns:xlink="http://www.w3.org/1999/xlink" xmlns:svgjs="http://svgjs.com/svgjs" fill="#fff" stroke-miterlimit="100" stroke="#494a67" stroke-width=".5"><svg xmlns="http://www.w3.org/2000/svg" width="39" height="39" viewBox="0.5 0.488 37.739 37.739"><path paint-order="stroke fill markers" fill-rule="evenodd" d="M18.215 37.808a1.633 1.633 0 0 1-.486-.889c-.024-.13-.022-.162-.027-.292v-15.62H2.097c-1.287-.06-2.15-1.78-1.183-2.805.237-.252.552-.424.89-.486.128-.024.162-.02.293-.026h15.605V2.085c.06-1.287 1.78-2.15 2.805-1.183.252.238.424.552.486.89.023.129.02.162.026.293V17.69h15.619c.05.001.098.004.147.006 1.229.17 1.962 1.814 1.035 2.798a1.632 1.632 0 0 1-.89.486c-.128.023-.16.02-.292.027H21.019v15.62l-.006.146c-.116.843-.928 1.453-1.743 1.453-.373 0-.747-.127-1.055-.418z"/></svg></svg>